<svg xmlns="http://www.w3.org/2000/svg" xmlns:xlink="http://www.w3.org/1999/xlink" width="2000" zoomAndPan="magnify" viewBox="0 0 1500 1499.999933" height="2000" preserveAspectRatio="xMidYMid meet" version="1.0"><defs><g/><clipPath id="a32069823d"><path d="M 450.535156 594 L 1049.785156 594 L 1049.785156 885 L 450.535156 885 Z M 450.535156 594 " clip-rule="nonzero"/></clipPath><clipPath id="5062f85309"><path d="M 706 331.617188 L 800 331.617188 L 800 855 L 706 855 Z M 706 331.617188 " clip-rule="nonzero"/></clipPath></defs><g fill="#fffcf5" fill-opacity="1"><g transform="translate(198.187516, 1056.295137)"><g><path d="M 2.078125 0 L 37.203125 -85.359375 L 47.203125 -85.359375 L 82.3125 0 L 70.984375 0 L 62.921875 -19.390625 L 21.34375 -19.390625 L 13.53125 0 Z M 25.484375 -29.390625 L 58.90625 -29.390625 L 42.203125 -70.359375 Z M 25.484375 -29.390625 "/></g></g></g><g fill="#fffcf5" fill-opacity="1"><g transform="translate(282.573713, 1056.295137)"><g><path d="M 12.4375 0 L 12.4375 -85.359375 L 41.953125 -85.359375 C 50.734375 -85.359375 58.394531 -83.550781 64.9375 -79.9375 C 71.476562 -76.320312 76.578125 -71.320312 80.234375 -64.9375 C 83.898438 -58.550781 85.734375 -51.132812 85.734375 -42.6875 C 85.734375 -34.3125 83.898438 -26.910156 80.234375 -20.484375 C 76.578125 -14.066406 71.476562 -9.046875 64.9375 -5.421875 C 58.394531 -1.804688 50.734375 0 41.953125 0 Z M 23.171875 -10.25 L 41.953125 -10.25 C 48.453125 -10.25 54.160156 -11.609375 59.078125 -14.328125 C 64.003906 -17.054688 67.847656 -20.859375 70.609375 -25.734375 C 73.367188 -30.609375 74.75 -36.257812 74.75 -42.6875 C 74.75 -49.1875 73.347656 -54.851562 70.546875 -59.6875 C 67.742188 -64.53125 63.863281 -68.3125 58.90625 -71.03125 C 53.945312 -73.757812 48.132812 -75.125 41.46875 -75.125 L 23.171875 -75.125 Z M 23.171875 -10.25 "/></g></g></g><g fill="#fffcf5" fill-opacity="1"><g transform="translate(375.374142, 1056.295137)"><g><path d="M 36.09375 0 L 2.078125 -85.359375 L 13.53125 -85.359375 L 27.6875 -49.390625 L 41.09375 -15.484375 L 54.390625 -49.390625 L 68.65625 -85.359375 L 80 -85.359375 L 46.09375 0 Z M 36.09375 0 "/></g></g></g><g fill="#fffcf5" fill-opacity="1"><g transform="translate(457.443368, 1056.295137)"><g><path d="M 2.078125 0 L 37.203125 -85.359375 L 47.203125 -85.359375 L 82.3125 0 L 70.984375 0 L 62.921875 -19.390625 L 21.34375 -19.390625 L 13.53125 0 Z M 25.484375 -29.390625 L 58.90625 -29.390625 L 42.203125 -70.359375 Z M 25.484375 -29.390625 "/></g></g></g><g fill="#fffcf5" fill-opacity="1"><g transform="translate(541.829576, 1056.295137)"><g><path d="M 12.4375 0 L 12.4375 -85.359375 L 22.5625 -85.359375 L 69.75 -18.53125 L 69.75 -85.359375 L 80.25 -85.359375 L 80.25 0 L 70.25 0 L 23.046875 -66.828125 L 23.046875 0 Z M 12.4375 0 "/></g></g></g><g fill="#fffcf5" fill-opacity="1"><g transform="translate(634.508035, 1056.295137)"><g><path d="M 50.25 1.578125 C 43.988281 1.578125 38.210938 0.484375 32.921875 -1.703125 C 27.640625 -3.898438 23.066406 -6.96875 19.203125 -10.90625 C 15.347656 -14.851562 12.363281 -19.53125 10.25 -24.9375 C 8.132812 -30.34375 7.078125 -36.257812 7.078125 -42.6875 C 7.078125 -49.101562 8.132812 -55.015625 10.25 -60.421875 C 12.363281 -65.828125 15.347656 -70.5 19.203125 -74.4375 C 23.066406 -78.382812 27.640625 -81.457031 32.921875 -83.65625 C 38.210938 -85.851562 43.988281 -86.953125 50.25 -86.953125 C 56.988281 -86.953125 63.179688 -85.710938 68.828125 -83.234375 C 74.484375 -80.753906 79.320312 -77.21875 83.34375 -72.625 C 87.375 -68.03125 90.328125 -62.601562 92.203125 -56.34375 L 80.734375 -56.34375 C 78.535156 -62.519531 74.734375 -67.375 69.328125 -70.90625 C 63.921875 -74.445312 57.679688 -76.21875 50.609375 -76.21875 C 44.265625 -76.21875 38.65625 -74.796875 33.78125 -71.953125 C 28.90625 -69.109375 25.0625 -65.164062 22.25 -60.125 C 19.445312 -55.082031 18.046875 -49.269531 18.046875 -42.6875 C 18.046875 -36.101562 19.445312 -30.289062 22.25 -25.25 C 25.0625 -20.207031 28.90625 -16.257812 33.78125 -13.40625 C 38.65625 -10.5625 44.265625 -9.140625 50.609375 -9.140625 C 57.847656 -9.140625 64.269531 -11.007812 69.875 -14.75 C 75.488281 -18.488281 79.394531 -23.570312 81.59375 -30 L 92.921875 -30 C 91.210938 -23.65625 88.304688 -18.125 84.203125 -13.40625 C 80.097656 -8.695312 75.140625 -5.019531 69.328125 -2.375 C 63.515625 0.257812 57.15625 1.578125 50.25 1.578125 Z M 50.25 1.578125 "/></g></g></g><g fill="#fffcf5" fill-opacity="1"><g transform="translate(734.015504, 1056.295137)"><g><path d="M 12.4375 0 L 12.4375 -85.359375 L 64.265625 -85.359375 L 64.265625 -75.359375 L 23.171875 -75.359375 L 23.171875 -48.421875 L 61.21875 -48.421875 L 61.21875 -38.53125 L 23.171875 -38.53125 L 23.171875 -10 L 65.609375 -10 L 65.609375 0 Z M 12.4375 0 "/></g></g></g><g fill="#fffcf5" fill-opacity="1"><g transform="translate(807.548548, 1056.295137)"><g/></g></g><g fill="#fffcf5" fill-opacity="1"><g transform="translate(837.790976, 1056.295137)"><g><path d="M 12.4375 0 L 12.4375 -85.359375 L 64.265625 -85.359375 L 64.265625 -75.359375 L 23.171875 -75.359375 L 23.171875 -48.421875 L 61.21875 -48.421875 L 61.21875 -38.53125 L 23.171875 -38.53125 L 23.171875 -10 L 65.609375 -10 L 65.609375 0 Z M 12.4375 0 "/></g></g></g><g fill="#fffcf5" fill-opacity="1"><g transform="translate(911.32402, 1056.295137)"><g><path d="M 40.859375 1.578125 C 34.023438 1.578125 28.109375 0.421875 23.109375 -1.890625 C 18.109375 -4.203125 14.242188 -7.453125 11.515625 -11.640625 C 8.796875 -15.828125 7.394531 -20.6875 7.3125 -26.21875 L 18.046875 -26.21875 C 18.210938 -20.769531 20.390625 -16.476562 24.578125 -13.34375 C 28.765625 -10.21875 34.191406 -8.65625 40.859375 -8.65625 C 46.867188 -8.65625 51.640625 -9.832031 55.171875 -12.1875 C 58.710938 -14.550781 60.484375 -17.847656 60.484375 -22.078125 C 60.484375 -26.054688 58.773438 -29.242188 55.359375 -31.640625 C 51.953125 -34.046875 46.382812 -36.140625 38.65625 -37.921875 C 28.164062 -40.441406 20.484375 -43.671875 15.609375 -47.609375 C 10.734375 -51.554688 8.296875 -56.828125 8.296875 -63.421875 C 8.296875 -70.648438 11.035156 -76.378906 16.515625 -80.609375 C 22.003906 -84.835938 29.425781 -86.953125 38.78125 -86.953125 C 48.375 -86.953125 55.953125 -84.550781 61.515625 -79.75 C 67.085938 -74.957031 69.914062 -68.414062 70 -60.125 L 59.390625 -60.125 C 59.304688 -65.25 57.414062 -69.289062 53.71875 -72.25 C 50.019531 -75.21875 45.039062 -76.703125 38.78125 -76.703125 C 32.6875 -76.703125 27.910156 -75.503906 24.453125 -73.109375 C 20.992188 -70.710938 19.265625 -67.484375 19.265625 -63.421875 C 19.265625 -59.921875 20.867188 -56.96875 24.078125 -54.5625 C 27.296875 -52.164062 33.050781 -49.953125 41.34375 -47.921875 C 52.238281 -45.242188 60.003906 -41.890625 64.640625 -37.859375 C 69.273438 -33.835938 71.59375 -28.695312 71.59375 -22.4375 C 71.59375 -15.039062 68.804688 -9.1875 63.234375 -4.875 C 57.660156 -0.570312 50.203125 1.578125 40.859375 1.578125 Z M 40.859375 1.578125 "/></g></g></g><g fill="#fffcf5" fill-opacity="1"><g transform="translate(990.222695, 1056.295137)"><g><path d="M 33.046875 0 L 33.046875 -75.125 L 4.140625 -75.125 L 4.140625 -85.359375 L 72.5625 -85.359375 L 72.5625 -75.125 L 43.78125 -75.125 L 43.78125 0 Z M 33.046875 0 "/></g></g></g><g fill="#fffcf5" fill-opacity="1"><g transform="translate(1067.04825, 1056.295137)"><g><path d="M 2.078125 0 L 37.203125 -85.359375 L 47.203125 -85.359375 L 82.3125 0 L 70.984375 0 L 62.921875 -19.390625 L 21.34375 -19.390625 L 13.53125 0 Z M 25.484375 -29.390625 L 58.90625 -29.390625 L 42.203125 -70.359375 Z M 25.484375 -29.390625 "/></g></g></g><g fill="#fffcf5" fill-opacity="1"><g transform="translate(1151.434504, 1056.295137)"><g><path d="M 33.046875 0 L 33.046875 -75.125 L 4.140625 -75.125 L 4.140625 -85.359375 L 72.5625 -85.359375 L 72.5625 -75.125 L 43.78125 -75.125 L 43.78125 0 Z M 33.046875 0 "/></g></g></g><g fill="#fffcf5" fill-opacity="1"><g transform="translate(1228.260059, 1056.295137)"><g><path d="M 12.4375 0 L 12.4375 -85.359375 L 64.265625 -85.359375 L 64.265625 -75.359375 L 23.171875 -75.359375 L 23.171875 -48.421875 L 61.21875 -48.421875 L 61.21875 -38.53125 L 23.171875 -38.53125 L 23.171875 -10 L 65.609375 -10 L 65.609375 0 Z M 12.4375 0 "/></g></g></g><g fill="#d7b472" fill-opacity="1"><g transform="translate(357.757648, 1137.260618)"><g><path d="M 14.796875 0.28125 C 12.316406 0.28125 10.078125 -0.265625 8.078125 -1.359375 C 6.085938 -2.460938 4.523438 -3.972656 3.390625 -5.890625 C 2.265625 -7.816406 1.703125 -9.984375 1.703125 -12.390625 C 1.703125 -14.796875 2.265625 -16.957031 3.390625 -18.875 C 4.523438 -20.800781 6.09375 -22.3125 8.09375 -23.40625 C 10.101562 -24.507812 12.347656 -25.0625 14.828125 -25.0625 C 16.765625 -25.0625 18.535156 -24.734375 20.140625 -24.078125 C 21.742188 -23.429688 23.113281 -22.472656 24.25 -21.203125 L 21.9375 -18.96875 C 20.070312 -20.925781 17.75 -21.90625 14.96875 -21.90625 C 13.125 -21.90625 11.457031 -21.488281 9.96875 -20.65625 C 8.488281 -19.832031 7.328125 -18.695312 6.484375 -17.25 C 5.648438 -15.800781 5.234375 -14.179688 5.234375 -12.390625 C 5.234375 -10.597656 5.648438 -8.972656 6.484375 -7.515625 C 7.328125 -6.066406 8.488281 -4.925781 9.96875 -4.09375 C 11.457031 -3.269531 13.125 -2.859375 14.96875 -2.859375 C 17.726562 -2.859375 20.050781 -3.851562 21.9375 -5.84375 L 24.25 -3.609375 C 23.113281 -2.335938 21.734375 -1.367188 20.109375 -0.703125 C 18.492188 -0.046875 16.722656 0.28125 14.796875 0.28125 Z M 14.796875 0.28125 "/></g></g></g><g fill="#d7b472" fill-opacity="1"><g transform="translate(411.645709, 1137.260618)"><g><path d="M 20.28125 0 L 14.9375 -7.609375 C 14.269531 -7.554688 13.75 -7.53125 13.375 -7.53125 L 7.25 -7.53125 L 7.25 0 L 3.71875 0 L 3.71875 -24.765625 L 13.375 -24.765625 C 16.582031 -24.765625 19.109375 -24 20.953125 -22.46875 C 22.796875 -20.9375 23.71875 -18.828125 23.71875 -16.140625 C 23.71875 -14.222656 23.242188 -12.59375 22.296875 -11.25 C 21.347656 -9.90625 20.003906 -8.925781 18.265625 -8.3125 L 24.140625 0 Z M 13.265625 -10.546875 C 15.515625 -10.546875 17.226562 -11.03125 18.40625 -12 C 19.582031 -12.96875 20.171875 -14.347656 20.171875 -16.140625 C 20.171875 -17.929688 19.582031 -19.300781 18.40625 -20.25 C 17.226562 -21.207031 15.515625 -21.6875 13.265625 -21.6875 L 7.25 -21.6875 L 7.25 -10.546875 Z M 13.265625 -10.546875 "/></g></g></g><g fill="#d7b472" fill-opacity="1"><g transform="translate(465.675276, 1137.260618)"><g><path d="M 26.6875 0 L 26.65625 -18.046875 L 17.6875 -3.015625 L 16.0625 -3.015625 L 7.109375 -17.9375 L 7.109375 0 L 3.71875 0 L 3.71875 -24.765625 L 6.625 -24.765625 L 16.953125 -7.359375 L 27.140625 -24.765625 L 30.046875 -24.765625 L 30.078125 0 Z M 26.6875 0 "/></g></g></g><g fill="#d7b472" fill-opacity="1"><g transform="translate(527.771234, 1137.260618)"><g/></g></g><g fill="#d7b472" fill-opacity="1"><g transform="translate(565.597284, 1137.260618)"><g><path d="M 3.71875 -24.765625 L 7.25 -24.765625 L 7.25 0 L 3.71875 0 Z M 3.71875 -24.765625 "/></g></g></g><g fill="#d7b472" fill-opacity="1"><g transform="translate(604.873861, 1137.260618)"><g><path d="M 25.015625 -24.765625 L 25.015625 0 L 22.125 0 L 7.25 -18.46875 L 7.25 0 L 3.71875 0 L 3.71875 -24.765625 L 6.625 -24.765625 L 21.484375 -6.296875 L 21.484375 -24.765625 Z M 25.015625 -24.765625 "/></g></g></g><g fill="#d7b472" fill-opacity="1"><g transform="translate(661.910638, 1137.260618)"><g><path d="M 26.6875 0 L 26.65625 -18.046875 L 17.6875 -3.015625 L 16.0625 -3.015625 L 7.109375 -17.9375 L 7.109375 0 L 3.71875 0 L 3.71875 -24.765625 L 6.625 -24.765625 L 16.953125 -7.359375 L 27.140625 -24.765625 L 30.046875 -24.765625 L 30.078125 0 Z M 26.6875 0 "/></g></g></g><g fill="#d7b472" fill-opacity="1"><g transform="translate(724.006595, 1137.260618)"><g><path d="M 14.90625 0.28125 C 12.394531 0.28125 10.132812 -0.265625 8.125 -1.359375 C 6.125 -2.460938 4.550781 -3.976562 3.40625 -5.90625 C 2.269531 -7.84375 1.703125 -10.003906 1.703125 -12.390625 C 1.703125 -14.773438 2.269531 -16.929688 3.40625 -18.859375 C 4.550781 -20.796875 6.125 -22.3125 8.125 -23.40625 C 10.132812 -24.507812 12.394531 -25.0625 14.90625 -25.0625 C 17.375 -25.0625 19.609375 -24.507812 21.609375 -23.40625 C 23.617188 -22.3125 25.191406 -20.800781 26.328125 -18.875 C 27.460938 -16.957031 28.03125 -14.796875 28.03125 -12.390625 C 28.03125 -9.984375 27.460938 -7.816406 26.328125 -5.890625 C 25.191406 -3.972656 23.617188 -2.460938 21.609375 -1.359375 C 19.609375 -0.265625 17.375 0.28125 14.90625 0.28125 Z M 14.90625 -2.859375 C 16.71875 -2.859375 18.347656 -3.269531 19.796875 -4.09375 C 21.253906 -4.925781 22.398438 -6.066406 23.234375 -7.515625 C 24.066406 -8.972656 24.484375 -10.597656 24.484375 -12.390625 C 24.484375 -14.179688 24.066406 -15.800781 23.234375 -17.25 C 22.398438 -18.695312 21.253906 -19.832031 19.796875 -20.65625 C 18.347656 -21.488281 16.71875 -21.90625 14.90625 -21.90625 C 13.082031 -21.90625 11.429688 -21.488281 9.953125 -20.65625 C 8.484375 -19.832031 7.328125 -18.695312 6.484375 -17.25 C 5.648438 -15.800781 5.234375 -14.179688 5.234375 -12.390625 C 5.234375 -10.597656 5.648438 -8.972656 6.484375 -7.515625 C 7.328125 -6.066406 8.484375 -4.925781 9.953125 -4.09375 C 11.429688 -3.269531 13.082031 -2.859375 14.90625 -2.859375 Z M 14.90625 -2.859375 "/></g></g></g><g fill="#d7b472" fill-opacity="1"><g transform="translate(782.033995, 1137.260618)"><g><path d="M 20.390625 -12.84375 C 21.828125 -12.445312 22.957031 -11.722656 23.78125 -10.671875 C 24.601562 -9.617188 25.015625 -8.289062 25.015625 -6.6875 C 25.015625 -4.539062 24.207031 -2.890625 22.59375 -1.734375 C 20.976562 -0.578125 18.625 0 15.53125 0 L 3.71875 0 L 3.71875 -24.765625 L 14.828125 -24.765625 C 17.660156 -24.765625 19.847656 -24.195312 21.390625 -23.0625 C 22.941406 -21.9375 23.71875 -20.375 23.71875 -18.375 C 23.71875 -17.070312 23.414062 -15.945312 22.8125 -15 C 22.207031 -14.0625 21.398438 -13.34375 20.390625 -12.84375 Z M 7.25 -21.90625 L 7.25 -13.984375 L 14.515625 -13.984375 C 16.328125 -13.984375 17.722656 -14.316406 18.703125 -14.984375 C 19.679688 -15.660156 20.171875 -16.644531 20.171875 -17.9375 C 20.171875 -19.238281 19.679688 -20.222656 18.703125 -20.890625 C 17.722656 -21.566406 16.328125 -21.90625 14.515625 -21.90625 Z M 15.390625 -2.859375 C 17.398438 -2.859375 18.910156 -3.1875 19.921875 -3.84375 C 20.941406 -4.507812 21.453125 -5.550781 21.453125 -6.96875 C 21.453125 -9.726562 19.429688 -11.109375 15.390625 -11.109375 L 7.25 -11.109375 L 7.25 -2.859375 Z M 15.390625 -2.859375 "/></g></g></g><g fill="#d7b472" fill-opacity="1"><g transform="translate(837.124933, 1137.260618)"><g><path d="M 3.71875 -24.765625 L 7.25 -24.765625 L 7.25 0 L 3.71875 0 Z M 3.71875 -24.765625 "/></g></g></g><g fill="#d7b472" fill-opacity="1"><g transform="translate(876.40151, 1137.260618)"><g><path d="M 3.71875 -24.765625 L 7.25 -24.765625 L 7.25 -3.078125 L 20.671875 -3.078125 L 20.671875 0 L 3.71875 0 Z M 3.71875 -24.765625 "/></g></g></g><g fill="#d7b472" fill-opacity="1"><g transform="translate(925.725679, 1137.260618)"><g><path d="M 3.71875 -24.765625 L 7.25 -24.765625 L 7.25 0 L 3.71875 0 Z M 3.71875 -24.765625 "/></g></g></g><g fill="#d7b472" fill-opacity="1"><g transform="translate(965.002256, 1137.260618)"><g><path d="M 19.5 -6.1875 L 6.328125 -6.1875 L 3.609375 0 L -0.03125 0 L 11.1875 -24.765625 L 14.6875 -24.765625 L 25.9375 0 L 22.21875 0 Z M 18.265625 -9.03125 L 12.921875 -21.15625 L 7.578125 -9.03125 Z M 18.265625 -9.03125 "/></g></g></g><g fill="#d7b472" fill-opacity="1"><g transform="translate(1019.208703, 1137.260618)"><g><path d="M 20.28125 0 L 14.9375 -7.609375 C 14.269531 -7.554688 13.75 -7.53125 13.375 -7.53125 L 7.25 -7.53125 L 7.25 0 L 3.71875 0 L 3.71875 -24.765625 L 13.375 -24.765625 C 16.582031 -24.765625 19.109375 -24 20.953125 -22.46875 C 22.796875 -20.9375 23.71875 -18.828125 23.71875 -16.140625 C 23.71875 -14.222656 23.242188 -12.59375 22.296875 -11.25 C 21.347656 -9.90625 20.003906 -8.925781 18.265625 -8.3125 L 24.140625 0 Z M 13.265625 -10.546875 C 15.515625 -10.546875 17.226562 -11.03125 18.40625 -12 C 19.582031 -12.96875 20.171875 -14.347656 20.171875 -16.140625 C 20.171875 -17.929688 19.582031 -19.300781 18.40625 -20.25 C 17.226562 -21.207031 15.515625 -21.6875 13.265625 -21.6875 L 7.25 -21.6875 L 7.25 -10.546875 Z M 13.265625 -10.546875 "/></g></g></g><g fill="#d7b472" fill-opacity="1"><g transform="translate(1073.23827, 1137.260618)"><g><path d="M 3.71875 -24.765625 L 7.25 -24.765625 L 7.25 0 L 3.71875 0 Z M 3.71875 -24.765625 "/></g></g></g><g fill="#d7b472" fill-opacity="1"><g transform="translate(1112.514847, 1137.260618)"><g><path d="M 14.90625 0.28125 C 12.394531 0.28125 10.132812 -0.265625 8.125 -1.359375 C 6.125 -2.460938 4.550781 -3.976562 3.40625 -5.90625 C 2.269531 -7.84375 1.703125 -10.003906 1.703125 -12.390625 C 1.703125 -14.773438 2.269531 -16.929688 3.40625 -18.859375 C 4.550781 -20.796875 6.125 -22.3125 8.125 -23.40625 C 10.132812 -24.507812 12.394531 -25.0625 14.90625 -25.0625 C 17.375 -25.0625 19.609375 -24.507812 21.609375 -23.40625 C 23.617188 -22.3125 25.191406 -20.800781 26.328125 -18.875 C 27.460938 -16.957031 28.03125 -14.796875 28.03125 -12.390625 C 28.03125 -9.984375 27.460938 -7.816406 26.328125 -5.890625 C 25.191406 -3.972656 23.617188 -2.460938 21.609375 -1.359375 C 19.609375 -0.265625 17.375 0.28125 14.90625 0.28125 Z M 14.90625 -2.859375 C 16.71875 -2.859375 18.347656 -3.269531 19.796875 -4.09375 C 21.253906 -4.925781 22.398438 -6.066406 23.234375 -7.515625 C 24.066406 -8.972656 24.484375 -10.597656 24.484375 -12.390625 C 24.484375 -14.179688 24.066406 -15.800781 23.234375 -17.25 C 22.398438 -18.695312 21.253906 -19.832031 19.796875 -20.65625 C 18.347656 -21.488281 16.71875 -21.90625 14.90625 -21.90625 C 13.082031 -21.90625 11.429688 -21.488281 9.953125 -20.65625 C 8.484375 -19.832031 7.328125 -18.695312 6.484375 -17.25 C 5.648438 -15.800781 5.234375 -14.179688 5.234375 -12.390625 C 5.234375 -10.597656 5.648438 -8.972656 6.484375 -7.515625 C 7.328125 -6.066406 8.484375 -4.925781 9.953125 -4.09375 C 11.429688 -3.269531 13.082031 -2.859375 14.90625 -2.859375 Z M 14.90625 -2.859375 "/></g></g></g><g clip-path="url(#a32069823d)"><path fill="#d7b472" d="M 766.460938 844.214844 L 750.160156 854.515625 C 699.226562 822.167969 648.289062 789.820312 597.472656 757.476562 L 597.472656 613.109375 L 469.59375 694.457031 L 750.160156 872.726562 L 1030.730469 694.457031 L 902.851562 613.230469 L 902.851562 757.59375 C 857.425781 786.46875 812.003906 815.339844 766.460938 844.214844 Z M 768.859375 830.554688 L 892.664062 751.84375 L 892.664062 594.660156 L 1049.785156 694.457031 C 949.949219 757.953125 850.117188 821.449219 750.160156 884.828125 C 650.324219 821.332031 550.371094 757.953125 450.535156 694.457031 L 607.660156 594.660156 L 607.660156 751.964844 L 750.160156 842.535156 Z M 768.859375 830.554688 " fill-opacity="1" fill-rule="nonzero"/></g><path fill="#d7b472" d="M 768.859375 839.902344 L 768.859375 842.65625 L 750.160156 854.515625 L 682.324219 811.507812 L 687.71875 802.878906 L 750.042969 842.417969 L 768.738281 830.554688 L 768.738281 839.902344 Z M 597.472656 643.421875 L 517.171875 694.335938 L 597.472656 745.375 Z M 504.949219 690.144531 L 607.78125 624.851562 L 607.78125 751.84375 L 617.007812 757.714844 L 611.613281 766.339844 L 498.355469 694.335938 Z M 900.574219 629.761719 L 1002.207031 694.335938 L 834.175781 801.203125 L 828.664062 792.578125 L 892.664062 751.964844 L 892.664062 624.972656 Z M 983.148438 694.457031 L 902.851562 643.539062 L 902.851562 745.496094 Z M 983.148438 694.457031 " fill-opacity="1" fill-rule="nonzero"/><path fill="#d7b472" d="M 602.625 495.703125 L 690.234375 495.703125 L 690.234375 816.539062 L 597.472656 757.476562 L 597.472656 495.703125 Z M 680.050781 506.003906 L 607.660156 506.003906 L 607.660156 751.84375 L 680.050781 797.847656 Z M 680.050781 506.003906 " fill-opacity="1" fill-rule="nonzero"/><path fill="#d7b472" d="M 706.535156 447.898438 L 659.074219 447.898438 L 659.074219 485.519531 L 648.886719 485.519531 L 648.886719 437.714844 L 716.84375 437.714844 L 716.84375 833.3125 L 649.007812 790.179688 L 649.007812 516.1875 L 659.195312 516.1875 L 659.195312 784.550781 L 706.65625 814.742188 L 706.65625 447.898438 Z M 659.074219 495.703125 L 659.074219 506.003906 L 648.886719 506.003906 L 648.886719 495.703125 Z M 659.074219 495.703125 " fill-opacity="1" fill-rule="nonzero"/><g clip-path="url(#5062f85309)"><path fill="#d7b472" d="M 714.324219 336.839844 L 799.300781 392.191406 L 799.300781 485.519531 L 789.113281 485.519531 L 789.113281 397.703125 L 716.722656 350.617188 L 716.722656 821.210938 L 750.160156 842.535156 L 789.113281 817.855469 L 789.113281 516.1875 L 799.300781 516.1875 L 799.300781 823.367188 L 750.160156 854.515625 L 706.535156 826.722656 L 706.535156 331.6875 Z M 789.113281 506.003906 L 789.113281 495.703125 L 799.300781 495.703125 L 799.300781 506.003906 Z M 789.113281 506.003906 " fill-opacity="1" fill-rule="nonzero"/></g><path fill="#d7b472" d="M 763.824219 495.703125 L 851.433594 495.703125 L 851.433594 790.179688 L 758.671875 849.125 L 758.671875 495.703125 Z M 841.246094 506.003906 L 768.976562 506.003906 L 768.976562 830.554688 L 841.246094 784.550781 Z M 841.246094 506.003906 " fill-opacity="1" fill-rule="nonzero"/><path fill="#d7b472" d="M 892.664062 463.953125 L 820.394531 463.953125 L 820.394531 485.519531 L 810.085938 485.519531 L 810.085938 453.648438 L 902.96875 453.648438 L 902.96875 757.476562 L 810.085938 816.539062 L 810.085938 516.1875 L 820.394531 516.1875 L 820.394531 797.96875 L 892.664062 751.964844 Z M 810.085938 506.003906 L 810.085938 495.703125 L 820.394531 495.703125 L 820.394531 506.003906 Z M 810.085938 506.003906 " fill-opacity="1" fill-rule="nonzero"/></svg>